Patient4_TMGait_0pt5_02_left_21_EMG.mot
version=1
nRows=30
nColumns=33
inDegrees=no
endheader
time	1LAddLong	2LGlutMax	3LGlutMed	4LIliopsoas	5LSemiMemb	6LBicFemLong	7LRecFem	8LVastMed	9LVastLat	10LGasMed	11LTibAnt	12lTibPost	13LPeroneusLong	14LSol	15LExtDigLong	16LFlexDigLong	17RAddLong	18RGlutMax	19RGlutMed	20RIliopsoas	21RSemiMemb	22RBicFemLong	23RRecFem	24RVastMed	25RVastLat	26RGasMed	27RTibAnt	28RTibPost	29RPeroneusLong	30RSol	31RExtDigLong	32RFlexDigLong
27.03	0.02655	-0.080414	-0.15762	0.017395	-0.081329	-0.084076	-1.0825	-0.005646	0.005646	-0.48614	-0.033875	-0.12558	-0.3067	0.29129	-0.10696	0.001221	0.076141	-0.064087	0.37247	0.079651	-0.17853	-0.21637	0.095673	-0.20203	0.030518	0.003357	0.010223	-0.017548	0.043945	-0.024872	-0.00351	-0.00351
27.031	0.023499	-0.059662	-0.071259	0.013123	-0.079041	0.019684	-1.1426	0.002441	0.01297	-0.95367	-0.024261	0	-0.39642	0.55023	-0.12848	-0.023499	0.041962	-0.031891	0.37796	-0.1474	-0.12207	0.028381	0.050201	-0.13977	0.022736	0.060577	0.024261	-0.021667	0.043793	-0.001526	-0.006714	0.000153
27.032	0.024567	-0.053101	-0.018005	-0.012512	-0.085602	0.10117	-1.2582	0.001221	0.037994	-0.70236	-0.016937	0.011444	0.15762	0.49881	-0.12482	0.000763	0.057373	-0.042877	0.42435	-0.26245	-0.073853	0.01297	0.12482	-0.21042	-0.004883	0.022278	0.010986	-0.027466	0.058289	0.007477	-0.001526	0.004272
27.033	0.019226	-0.011444	-0.009308	-0.008698	0.006409	0.23315	-1.255	0.017853	0.078278	-0.30045	0.005493	0.002899	0.40619	0.083618	-0.12634	-0.011749	0.039368	0.016785	0.46219	-0.177	-0.033417	0.012207	0.13397	-0.20767	-0.025787	0.009918	0.018616	-0.022888	0.035095	-0.039978	-0.003052	0.001526
27.034	0.016632	-0.010071	-0.009918	0.002747	0.046997	0.30807	-1.2567	0.027924	0.04715	0.10635	0.026855	-0.000305	0.14984	-0.081024	0.023041	-0.002899	-0.032349	0.031586	0.45181	-0.035553	-0.038452	0.059662	0.088501	-0.168	-0.010071	0.014038	0.039978	-0.026398	0.004272	-0.059357	-0.004578	0.003204
27.035	0.024261	-0.016022	0.008698	0.025482	0.12131	0.31769	-1.2576	0.048981	0.051727	0.029755	0.074768	0.003662	-0.02182	-0.23499	-0.041504	0.004272	-0.11292	-0.048523	0.46219	0.13504	0.012817	-0.020752	0.046692	-0.10788	-0.008545	0.016785	0.045319	-0.019989	-0.14511	-0.050964	-0.005951	-0.007629
27.036	0.034027	0.0914	-0.18112	0.026703	0.16586	0.40268	-1.3179	0.055847	-0.038452	0.018005	0.077972	0.006866	-0.018616	-0.3241	0.094452	0.002289	-0.11169	-0.10162	0.43304	0.26184	0.05249	-0.076904	-0.01297	-0.070496	0.001678	0.007629	0.063171	-0.017242	-0.41397	-0.028534	-0.001068	-0.008545
27.037	0.010681	0.10315	-0.042877	-0.001221	0.088501	0.62927	-1.36	0.045471	-0.084534	0.072632	0.079498	0.022888	-0.042725	-0.19623	0.36362	-0.011292	-0.095673	-0.11429	0.439	0.31128	0.041199	-0.13275	-0.022125	-0.032196	0.002441	0	0.046844	-0.014343	-0.52383	-0.007019	-0.002136	-0.003204
27.038	-0.005035	0.028839	0.24826	0.028839	-0.025635	0.69977	-1.5186	0.029602	-0.028992	0.008087	0.12024	0.01709	-0.005188	0.054626	0.5217	0.006104	-0.07782	-0.068207	0.42938	0.27756	-0.045166	-0.1004	-0.095825	-0.023193	0.011749	-0.006256	0.026398	-0.009308	-0.43304	-0.065308	-0.001221	0.00473
27.039	-0.015717	-0.045319	0.20508	0.023804	-0.12558	0.56229	-1.5483	-0.023651	0.10941	-0.02121	0.11887	0.022125	0.08316	0.25513	-0.002747	-0.003967	-0.073242	-0.1474	0.39414	0.021515	-0.051422	-0.034637	-0.060425	-0.038757	-0.00412	-0.016632	0.03067	-0.011139	-0.32059	-0.1384	0.001526	-0.005646
27.04	-0.030975	0.072937	0.30563	0.026398	-0.16968	0.089874	-1.611	-0.046844	0.16998	-0.03479	0.12161	0.033722	0.19547	0.17456	-0.46814	0.010071	-0.095062	-0.18356	0.35202	-0.087128	-0.048065	-0.001068	0.00351	-0.078735	-0.017242	-0.015106	0.026855	-0.015106	-0.13336	-0.11032	-0.001526	-0.010986
27.041	-0.046234	0.072021	0.22324	0.011902	-0.2179	-0.052948	-1.5036	-0.042725	0.15427	-0.033417	-0.12039	-0.002899	0.4715	-0.012207	-0.5513	0.006866	-0.10651	-0.19379	0.43137	-0.12772	-0.065308	0.062256	0.024872	-0.11429	-0.039063	-0.014954	0.008545	-0.01358	0.25024	-0.068665	-0.000305	-0.002289
27.042	-0.061951	0.1004	0.23224	0.003967	-0.24017	-0.18249	-1.3698	-0.021515	0.048065	0.079193	-0.22873	0.007629	0.57816	-0.095978	-0.10101	-0.014343	-0.14496	-0.23453	0.47592	-0.026398	-0.10712	0.054016	0.087585	-0.12512	-0.023346	-0.02243	-0.002289	-0.014038	0.44418	-0.048065	0.000916	-0.005493
27.043	-0.054321	0.15579	0.2095	0.037842	-0.055542	-0.005188	-1.3008	-0.012207	-0.018616	0.19806	-0.097198	-0.002289	0.43182	-0.02533	-0.27832	-0.02594	-0.14267	-0.23941	0.38254	0.03067	-0.095367	0.075836	0.097198	-0.080566	-0.021667	-0.036316	-0.022888	-0.01236	0.46616	-0.023499	-0.004883	0.00061
27.044	-0.014954	0.20844	0.25559	0.015869	-0.040131	0.091248	-1.2547	-0.005341	0.006256	0.10635	0.006409	0.006256	0.27496	0.17212	-0.17181	-0.006409	-0.10681	-0.18936	0.41626	-0.016022	-0.060577	0.036316	0.059204	-0.066223	-0.033722	-0.028992	-0.036163	-0.010681	0.38025	-0.018158	-0.001526	-0.007324
27.045	-0.010834	0.22003	0.20981	-0.006866	-0.049286	0.053864	-1.2582	-0.00824	0.036774	0.031891	0.007629	-0.013275	0.43671	0.28458	-0.017548	-0.007477	-0.10803	-0.080719	0.4628	0.008392	-0.060272	-0.041351	0.069733	-0.022736	-0.02655	-0.02121	0.020905	-0.008545	0.24109	-0.048676	-0.004272	-0.009003
27.046	-0.014801	0.095978	0.039673	-0.004272	0.072174	0.15549	-1.252	-0.016937	0.066071	-0.080872	-0.014801	-0.00412	0.11063	0.11612	-0.01709	-0.013428	-0.13473	-0.039368	0.46814	0.11261	-0.071106	-0.044861	0.007324	0.044403	-0.005798	-0.006561	0.047302	-0.011292	0.23575	-0.092163	-0.000305	0.002747
27.047	0.001373	-0.022736	0.055237	-0.010223	0.037079	0.37323	-1.1942	0.001068	0.081635	-0.036774	-0.027618	-0.007172	-0.36499	-0.007935	-0.025482	-0.016174	-0.13901	-0.059662	0.42297	0.12161	-0.055389	0.014801	-0.016937	0.026093	0.005798	-0.014191	0.024261	-0.016785	0.10727	-0.076599	0.00061	-0.002747
27.048	-0.003357	-0.12405	-0.028534	0.011902	0.07019	0.20935	-1.1409	-0.016632	0.10773	0.09613	-0.046234	-0.00473	0.37323	-0.040588	-0.11261	-0.001831	-0.12192	-0.038147	0.46204	0.10498	-0.010834	0.059204	-0.037689	0.13077	0.02182	-0.032043	0.073395	-0.010986	-0.057678	-0.10468	-0.002289	-0.00946
27.049	0.025177	-0.32257	-0.084076	0.005341	0.16754	-0.031128	-1.0503	-0.021667	0.063324	0.19318	-0.026398	-0.010834	-0.084839	-0.12192	-0.13443	-0.007172	-0.10056	-0.006104	0.41153	0.072479	0.005646	0.11551	-0.051575	0.11551	0.009613	-0.030823	0.17731	-0.00824	-0.1387	-0.103	-0.005951	-0.018921
27.05	0.03067	-0.44418	-0.18082	0.010529	0.18738	-0.093231	-1.0373	-0.015869	0.008392	0.025024	-0.01358	-0.005951	-0.5011	-0.14725	0.029755	-0.010223	-0.080414	-0.03006	0.4216	0.005798	0.052643	0.14679	-0.031281	0.090332	0.006256	-0.023346	-0.007477	-0.008698	-0.11154	-0.091248	-0.000305	-0.003052
27.051	0.018463	-0.41534	-0.09079	0.014648	0.12314	-0.31738	-1.068	-0.005035	-0.014191	-0.20966	0.010986	0.00412	0.18402	-0.063782	0.15274	-0.002594	-0.022583	-0.039825	0.30624	-0.089569	0.13138	0.15717	-0.004272	0.077209	0.016632	-0.014038	-0.1738	-0.010071	-0.03891	-0.095215	0.002136	-0.001526
27.052	0.014801	-0.44556	0.11154	0.017853	0.046844	-0.44464	-1.0771	0.012665	0.029144	-0.20325	-0.037079	0.000763	-0.448	-0.03418	0.14374	-0.020447	0.040741	-0.011139	0.37979	-0.10712	0.1059	-0.001373	0.059509	0.0354	-0.005646	-0.010376	-0.20584	-0.002747	0.006104	-0.086517	-0.001984	-0.005493
27.053	0.004578	-0.47943	0.006256	0.003204	-0.030365	-0.073853	-1.0448	0.017242	0.10529	-0.20706	0.021362	-0.004578	-0.36743	-0.083313	0.15686	-0.012512	0.071106	-0.033417	0.4039	-0.15549	0.070801	-0.08255	0.09552	-0.044098	-0.021667	-0.01709	-0.16251	-0.009308	0.042419	-0.06012	-0.00061	-0.018463
27.054	0.00824	-0.38208	-0.03479	0.019989	-0.09903	0.1976	-0.92789	0.006866	0.12207	-0.17425	-0.006256	0.000305	-0.12497	-0.18921	0.13687	-0.027771	0.10941	-0.12573	0.31601	-0.14648	0.024261	-0.040131	0.034027	-0.000763	-0.027771	-0.016327	-0.027161	-0.006866	0.009766	-0.039978	-0.000916	-0.01236
27.055	0.015411	-0.36957	0.015259	-0.00824	-0.077362	0.17334	-0.83145	-0.00946	0.074768	0.22629	0.000305	0.014191	-0.14694	-0.30167	0.080566	-0.020599	0.14313	-0.075684	0.36926	-0.21912	0.028992	-0.058136	0.059052	-0.032043	-0.019531	-0.010681	-0.002136	-0.01236	-0.097656	-0.009155	-0.002289	-0.008545
27.056	0.016785	-0.39078	-0.000458	-0.00946	-0.039673	0.17181	-0.76858	-0.014496	0.17746	0.44113	0.024109	0.010071	-0.10101	-0.39154	0.13473	-0.018311	0.099182	-0.12222	0.42038	-0.16052	-0.006104	-0.060883	0.022736	-0.053558	-0.005341	-0.016937	0.030823	-0.006409	-0.11215	-0.005646	0.000458	-0.005493
27.057	0.012512	-0.39352	-0.081787	-0.003815	0.044708	0.37094	-0.69946	-0.029907	0.27679	0.98831	0.061951	0.006714	-0.038757	-0.46204	0.14893	-0.02121	0.04715	-0.15289	0.43137	-0.11444	-0.023041	-0.064392	0.014801	-0.014191	-0.012054	-0.025024	0.10193	-0.007629	-0.067444	-0.001526	0.000458	-0.003052
27.058	-0.001221	-0.45242	-0.16556	0.019531	0.014191	0.36484	-0.63614	-0.014343	0.24918	1.0506	0.050507	-0.008545	-0.059204	-0.34561	0.21255	-0.0177	0.036316	-0.1976	0.42679	-0.079803	-0.053101	-0.031891	-0.014191	-0.010681	0.007477	-0.028687	0.10651	-0.007172	-0.000153	-0.001678	-0.001068	-0.003357
27.059	-0.010223	-0.59067	-0.22751	0.026703	-0.030823	0.1033	-0.54336	0.002747	0.11749	0.048981	0.032349	-0.014648	-0.24857	-0.16876	0.12543	-0.005798	0.049591	-0.1889	0.34882	0.00946	-0.030365	0.010071	-0.010681	0.032806	0.002594	-0.02243	0.075684	-0.001831	0.073547	-0.031586	-0.000305	-0.007935
